<svg width="1024" height="1024" viewBox="0 0 1024 1024" fill="none" xmlns="http://www.w3.org/2000/svg">
  <defs>
    <linearGradient id="bg" x1="160" y1="160" x2="864" y2="864" gradientUnits="userSpaceOnUse">
      <stop stop-color="#F4F4F5"/>
      <stop offset="1" stop-color="#D4D4D8"/>
    </linearGradient>
    <linearGradient id="dark" x1="260" y1="360" x2="760" y2="760" gradientUnits="userSpaceOnUse">
      <stop stop-color="#4B5563"/>
      <stop offset="1" stop-color="#111827"/>
    </linearGradient>
    <linearGradient id="mid" x1="310" y1="390" x2="650" y2="610" gradientUnits="userSpaceOnUse">
      <stop stop-color="#E5E7EB"/>
      <stop offset="1" stop-color="#9CA3AF"/>
    </linearGradient>
    <filter id="shadow" x="120" y="220" width="760" height="560" filterUnits="userSpaceOnUse" color-interpolation-filters="sRGB">
      <feDropShadow dx="0" dy="14" stdDeviation="20" flood-color="#000000" flood-opacity="0.18"/>
    </filter>
    <filter id="soft" x="0" y="0" width="1024" height="1024" filterUnits="userSpaceOnUse" color-interpolation-filters="sRGB">
      <feGaussianBlur stdDeviation="24"/>
    </filter>
    <clipPath id="lensClip">
      <circle cx="658" cy="548" r="108"/>
    </clipPath>
  </defs>

  <rect width="1024" height="1024" rx="220" fill="url(#bg)"/>
  <ellipse cx="520" cy="560" rx="250" ry="170" fill="#FFFFFF" opacity="0.28" filter="url(#soft)"/>

  <g filter="url(#shadow)">
    <!-- Cloud / emulator environment -->
    <path d="M316 396C328 354 366 324 413 324C447 324 478 340 497 367C511 355 530 348 551 348C591 348 625 374 636 411H360C339 411 323 405 316 396Z" fill="#E5E7EB" opacity="0.95"/>
    <path d="M363 424C323 424 292 456 292 496C292 536 323 568 363 568H580C633 568 676 525 676 472C676 419 633 376 580 376C555 376 532 386 515 402C498 369 464 346 424 346C372 346 329 383 323 434C336 427 349 424 363 424Z" fill="#D1D5DB"/>
    <path d="M363 424C323 424 292 456 292 496C292 536 323 568 363 568H580C633 568 676 525 676 472C676 419 633 376 580 376C555 376 532 386 515 402C498 369 464 346 424 346C372 346 329 383 323 434" stroke="#9CA3AF" stroke-width="12" stroke-linecap="round" stroke-linejoin="round"/>

    <!-- Server stack / resources -->
    <g>
      <path d="M278 468C278 455 288 444 301 444H498C511 444 521 455 521 468V516C521 529 511 540 498 540H301C288 540 278 529 278 516V468Z" fill="url(#mid)" stroke="#374151" stroke-width="10"/>
      <circle cx="324" cy="492" r="9" fill="#4B5563"/>
      <circle cx="355" cy="492" r="9" fill="#4B5563"/>
      <path d="M278 546C278 533 288 522 301 522H498C511 522 521 533 521 546V594C521 607 511 618 498 618H301C288 618 278 607 278 594V546Z" fill="url(#mid)" stroke="#374151" stroke-width="10"/>
      <circle cx="324" cy="570" r="9" fill="#4B5563"/>
      <circle cx="355" cy="570" r="9" fill="#4B5563"/>
      <path d="M278 624C278 611 288 600 301 600H498C511 600 521 611 521 624V672C521 685 511 696 498 696H301C288 696 278 685 278 672V624Z" fill="url(#dark)" stroke="#111827" stroke-width="10"/>
      <circle cx="324" cy="648" r="9" fill="#D1D5DB"/>
      <circle cx="355" cy="648" r="9" fill="#D1D5DB"/>
    </g>

    <!-- Port / orbit line -->
    <path d="M254 646C262 691 301 732 352 743C404 754 469 754 530 733" stroke="#111827" stroke-width="12" stroke-linecap="round"/>

    <!-- Magnifying glass / browser -->
    <circle cx="658" cy="548" r="142" fill="url(#dark)"/>
    <circle cx="658" cy="548" r="117" fill="#F9FAFB" stroke="#6B7280" stroke-width="10"/>
    <g clip-path="url(#lensClip)">
      <circle cx="658" cy="548" r="108" fill="#E5E7EB"/>
      <path d="M582 620C617 564 707 515 745 470" stroke="#FFFFFF" stroke-opacity="0.7" stroke-width="16" stroke-linecap="round"/>
    </g>
    <path d="M751 641L814 704" stroke="#111827" stroke-width="28" stroke-linecap="round"/>

    <!-- Resource cube -->
    <path d="M657 474L719 509V586L657 622L595 586V509L657 474Z" fill="#F9FAFB" stroke="#374151" stroke-width="12" stroke-linejoin="round"/>
    <path d="M657 474V622" stroke="#374151" stroke-width="10"/>
    <path d="M595 509L657 546L719 509" stroke="#374151" stroke-width="10" stroke-linejoin="round"/>

    <!-- Subtle port notch in lens ring -->
    <path d="M548 547C548 486 597 436 658 436" stroke="#9CA3AF" stroke-width="8" stroke-linecap="round" opacity="0.7"/>
  </g>
</svg>
